<svg xmlns="http://www.w3.org/2000/svg" width="20" height="20" viewBox="0 0 20 20" fill="none"><path d="M6.20657 19.9961C4.77129 19.9961 3.32811 20.0039 1.89283 19.9961C1.0569 19.9961 0.433887 19.4364 0.370798 18.6165C0.355025 18.3721 0.410229 18.0962 0.504863 17.8676C0.757221 17.2606 1.04112 16.6694 1.32503 16.086C1.52218 15.684 1.50641 15.3135 1.28559 14.9272C0.323481 13.2008 -0.110259 11.3404 0.023806 9.36957C0.189416 6.83119 1.19096 4.64756 3.00478 2.85808C4.51893 1.36817 6.34063 0.445837 8.43836 0.122627C13.8562 -0.712987 18.6352 2.81867 19.7471 7.76929C21.001 13.319 17.468 18.7269 11.8846 19.8069C11.2222 19.933 10.5361 19.9724 9.85787 19.9803C8.6434 20.0118 7.42893 19.9961 6.20657 19.9961ZM9.99194 13.0037C10.9698 13.0037 11.9477 13.0037 12.9256 13.0037C13.5565 13.0037 13.9981 12.5938 14.006 12.0183C14.0139 11.435 13.5801 11.0093 12.9493 11.0014C10.9856 10.9935 9.02982 10.9935 7.06616 11.0014C6.89267 11.0014 6.7034 11.0487 6.54568 11.1196C6.12771 11.3167 5.93055 11.7739 6.02519 12.2233C6.11982 12.6647 6.52202 12.9958 6.9873 12.9958C7.98885 13.0037 8.99039 12.9958 9.99194 13.0037ZM8.00462 9.00694C8.32795 9.00694 8.6434 9.01482 8.96673 9.00694C9.57397 8.99118 10.0077 8.56549 10.0077 7.9979C10.0077 7.43031 9.5582 7.00462 8.95885 7.00462C8.33584 7.00462 7.71283 7.00462 7.08194 7.00462C6.45893 7.00462 6.0173 7.41455 6.00942 7.9979C6.00942 8.58125 6.44316 8.99906 7.06616 9.00694C7.37372 9.00694 7.68917 9.00694 8.00462 9.00694Z" fill="white"></path></svg>