<svg xmlns="http://www.w3.org/2000/svg" width="18" height="20" viewBox="0 0 18 20" fill="none"><path d="M4.07312 4.87717C3.76771 2.24658 6.15253 0.0310259 8.93373 0.00050866C10.3503 -0.0178017 11.5655 0.458268 12.5532 1.42261C13.5279 2.37475 13.9698 3.5283 13.9308 4.87717C14.3597 4.87717 14.7691 4.87106 15.1785 4.88327C15.3929 4.88937 15.6203 4.90158 15.8283 4.96262C16.5756 5.16403 17.0629 5.76827 17.1214 6.53731C17.3228 9.1862 17.5178 11.8412 17.7192 14.4901C17.8102 15.6498 17.8947 16.8155 17.9922 17.9752C18.0701 18.9761 17.5633 19.7269 16.6275 19.9405C16.4391 19.9832 16.2442 19.9954 16.0492 19.9954C11.3446 20.0015 6.64639 20.0015 1.94173 19.9954C0.720074 19.9954 -0.0727001 19.2203 0.00527767 18.0728C0.128743 16.2662 0.284698 14.4596 0.421159 12.653C0.55762 10.8463 0.694081 9.03972 0.830543 7.2331C0.856535 6.92793 0.869532 6.62276 0.915019 6.32369C1.05148 5.49362 1.78577 4.89548 2.68901 4.88327C3.14388 4.87106 3.59875 4.87717 4.07312 4.87717ZM5.63917 4.85886C7.90053 4.85886 10.1294 4.85886 12.3713 4.85886C12.4167 3.62596 11.9359 2.6372 10.8377 1.97803C9.65503 1.26392 8.40738 1.25782 7.21822 1.95361C6.08755 2.61279 5.59369 3.60765 5.63917 4.85886Z" fill="white"></path></svg>